<svg version="1.1" id="Layer_1" xmlns="http://www.w3.org/2000/svg" xmlns:xlink="http://www.w3.org/1999/xlink" x="0px" y="0px"
	 width="100%" viewBox="0 0 464 400" enable-background="new 0 0 464 400" xml:space="preserve">
<path fill="#000000" opacity="1.000000" stroke="none" 
	d="
M264.625397,213.338898 
	C260.134796,222.968521 252.215912,227.959671 243.028992,231.197296 
	C236.276794,233.576904 230.813080,237.118835 228.055084,244.081100 
	C227.096954,246.499817 227.442673,248.337112 229.555054,249.720673 
	C239.141922,255.999710 246.858078,264.262177 254.091141,272.995850 
	C256.632721,276.064697 259.474976,276.339264 263.149597,275.356842 
	C261.442932,264.521332 260.477600,253.877731 263.665161,243.489365 
	C268.100250,229.035248 274.549103,216.281448 291.119507,212.130341 
	C295.134430,211.124527 299.486969,209.631424 302.182068,205.777542 
	C302.770203,204.936508 303.636414,204.317841 304.751892,204.735703 
	C306.152435,205.260376 306.314453,206.552231 305.922150,207.660110 
	C301.528076,220.068741 306.742645,230.701157 311.719330,241.562576 
	C315.452545,249.710342 313.227661,256.627747 306.192444,262.326782 
	C300.761688,266.726074 295.416992,271.231903 290.057098,275.717926 
	C289.719727,276.000305 289.582916,276.522308 289.135010,277.321259 
	C293.733521,278.079102 298.119995,278.671814 302.450684,279.542206 
	C312.069031,281.475403 313.648315,283.752106 312.551025,293.490479 
	C312.464233,294.260803 312.674011,295.064575 312.735077,295.733154 
	C314.111023,296.244324 314.924774,295.510620 315.823914,295.149261 
	C326.716736,290.770966 337.696960,292.749390 343.228851,300.091309 
	C348.187561,306.672424 347.125305,319.160156 340.662659,327.686401 
	C334.453705,335.877960 326.537140,342.364929 318.077698,347.956665 
	C307.117188,355.201599 296.088776,362.408295 285.874481,370.593872 
	C280.921753,374.562927 275.556580,378.851257 272.784302,385.241821 
	C271.191833,388.912750 267.639679,390.960297 263.994080,392.238373 
	C249.220108,397.418060 234.218765,398.917267 218.900330,394.614624 
	C215.803574,393.744781 213.326462,392.005493 211.863205,389.402557 
	C210.015198,386.115265 207.485703,383.615143 204.737549,381.195679 
	C195.516602,373.077423 188.701370,363.384155 185.705505,351.324463 
	C182.966049,340.296967 176.352448,331.163055 171.337997,321.242401 
	C166.707153,312.080658 163.663818,302.436157 163.702652,292.055176 
	C163.734756,283.474335 165.643921,281.160400 174.111237,279.742249 
	C183.789429,278.121307 193.526093,276.899200 203.371475,276.904755 
	C206.009323,276.906250 208.647171,276.904999 211.484589,276.329224 
	C202.437836,268.196259 191.892044,262.840576 179.083954,258.966980 
	C191.294632,249.897995 202.943176,249.270065 215.156937,253.670486 
	C218.447891,247.539642 217.577682,242.668106 212.244614,237.819672 
	C199.939728,226.633041 189.430923,213.934402 181.534332,199.338196 
	C172.007889,181.729340 169.462036,163.266937 176.834763,144.042206 
	C181.280304,132.450211 181.068787,132.579224 191.954971,139.113541 
	C201.795044,145.019943 209.589096,153.217514 217.854568,161.296021 
	C218.410446,160.885208 219.095352,160.624771 219.378525,160.133026 
	C223.895065,152.289246 230.077667,145.697327 235.485229,138.523697 
	C239.912125,132.650955 242.509750,126.069244 241.995453,118.536026 
	C241.871246,116.716812 241.800980,114.868713 240.109894,112.846161 
	C236.100769,115.246170 231.809402,117.174469 227.120773,118.218628 
	C219.113388,120.001854 211.587570,118.917946 204.302292,115.391624 
	C195.158661,110.965820 187.261856,104.407608 177.905411,100.262489 
	C173.188950,98.172997 173.123169,93.428841 174.368668,87.135048 
	C176.426254,76.737633 183.266739,67.750221 182.825638,56.644073 
	C182.688126,53.181461 185.711212,52.650108 188.601837,52.663696 
	C193.724335,52.687775 198.847031,52.670448 204.370071,52.670448 
	C205.688034,51.144112 204.622101,48.904049 204.663788,46.842243 
	C204.812546,39.485413 210.813766,35.122787 217.521088,37.848969 
	C220.899902,39.222275 224.080734,40.329021 227.480042,38.143379 
	C227.745865,37.972473 228.191238,37.795021 228.424927,37.901649 
	C234.796829,40.809109 239.718582,35.533367 245.464447,34.882256 
	C250.144272,34.351952 254.207291,34.591339 257.601837,38.692646 
	C260.615417,42.333633 264.558929,44.949429 267.317841,49.144371 
	C276.654266,63.340374 276.831940,81.024742 267.043213,94.812172 
	C265.045013,97.626640 262.488617,99.817329 259.555511,101.276192 
	C254.589417,103.746216 251.663574,107.387062 251.669342,112.921013 
	C251.682770,125.819122 244.260788,135.407074 237.452713,145.235474 
	C233.567627,150.844147 229.360580,156.236969 225.146912,161.608047 
	C222.816727,164.578308 222.516434,167.283707 224.339325,170.745300 
	C227.675629,177.080902 230.710526,183.604218 230.507034,191.073349 
	C230.481644,192.005051 230.591583,193.090912 232.101791,193.845703 
	C235.435806,189.476517 238.419128,184.711395 242.189697,180.558060 
	C243.510925,179.102676 242.443771,177.007797 241.997269,175.262939 
	C239.446350,165.294189 241.366074,156.295349 248.500809,148.886963 
	C252.180191,145.066437 253.235535,140.201935 255.325409,135.742706 
	C257.969849,130.100128 259.946075,128.862350 265.804840,130.401749 
	C268.372253,131.076340 270.377441,130.415390 272.364441,129.062302 
	C274.434235,127.652786 276.481415,126.201263 278.965393,125.607193 
	C280.844666,125.157745 282.982025,125.055466 283.822784,127.030579 
	C287.456787,135.567444 295.823303,138.301132 302.832916,142.540848 
	C306.807709,144.944992 313.898987,153.728897 313.187805,158.016632 
	C312.660034,161.198624 310.686768,164.092148 308.414764,166.526169 
	C307.305634,167.714386 305.660706,168.443558 305.486877,170.316528 
	C312.527435,175.307098 313.062744,180.045731 307.012848,186.521454 
	C304.473969,189.239014 303.945709,192.744965 302.444916,195.856293 
	C301.635101,197.535217 301.093994,199.364990 299.319763,200.186569 
	C289.615936,204.680176 280.117218,210.871460 268.900604,204.289490 
	C268.513123,204.062134 267.944031,204.144348 267.095795,204.035675 
	C266.322845,207.019394 265.550415,210.001144 264.625397,213.338898 
M309.667786,301.404602 
	C309.667786,297.156158 309.667786,292.907684 309.667786,288.503662 
	C307.046478,288.722198 304.688263,289.381287 302.500702,289.016632 
	C295.212616,287.801666 287.773865,287.444611 280.655060,288.621399 
	C269.336395,290.492432 258.089905,289.387573 246.832718,289.343292 
	C233.726837,289.291779 220.689835,288.077972 207.494766,288.966736 
	C196.347397,289.717621 185.037292,292.173248 173.785156,289.022827 
	C168.289780,287.484161 167.134995,288.481659 167.380020,294.111084 
	C167.916092,306.426880 172.447296,317.478302 178.850433,327.744110 
	C182.945328,334.309235 186.207977,341.137787 188.381256,348.535126 
	C190.984146,357.394806 194.585709,365.694275 201.071411,372.561951 
	C207.047989,378.890503 213.456192,383.847321 222.706161,384.545074 
	C232.173721,385.259216 241.561020,385.786102 251.047668,384.825714 
	C274.896484,382.411316 286.031281,367.784515 290.400665,351.903961 
	C292.467163,344.393280 295.327698,337.569946 299.274384,330.926788 
	C304.508575,322.116425 310.576080,313.459442 309.667786,301.404602 
M266.089386,268.138733 
	C267.046692,272.171295 267.896057,276.233948 269.007904,280.223450 
	C269.545074,282.150970 269.155823,285.126007 272.003937,285.326660 
	C274.650391,285.513092 277.109100,284.539734 278.874146,282.065125 
	C282.277649,277.293427 286.654327,273.479797 291.295013,269.901245 
	C296.028320,266.251190 300.591156,262.364288 305.060181,258.391571 
	C309.828003,254.153259 311.092743,249.267899 308.464935,243.582413 
	C304.000519,233.923187 299.378204,224.378342 300.722260,212.346802 
	C294.661804,215.433228 288.700256,216.278503 283.540741,219.398285 
	C279.287476,221.970093 276.483795,225.650650 273.844757,229.833221 
	C266.545685,241.401337 265.068512,254.009109 266.089386,268.138733 
M210.842972,176.454529 
	C211.928513,174.205612 212.810593,171.826462 214.147141,169.738190 
	C216.169052,166.579147 215.941406,164.022705 213.281555,161.306686 
	C207.215149,155.112167 201.172394,148.855316 193.917084,144.078568 
	C190.590866,141.888626 187.428665,138.933014 183.057358,138.465820 
	C173.521683,159.472931 174.490845,179.807999 185.546249,199.481613 
	C192.051605,211.058197 200.181061,221.524796 210.051605,230.591034 
	C209.340073,227.998474 208.270432,225.617783 207.265427,223.210144 
	C204.557983,216.723938 202.000504,210.132919 203.007004,202.940002 
	C204.257675,194.002075 206.959610,185.439026 210.842972,176.454529 
M240.885727,72.235703 
	C239.479919,72.596748 237.914963,72.607964 236.908249,74.034042 
	C237.794449,78.658203 243.128571,82.083847 241.269974,88.148102 
	C237.736374,86.272041 237.671478,83.105804 236.404755,80.744446 
	C234.814850,77.780632 233.050781,76.336609 229.698074,78.212074 
	C228.582367,78.836182 227.170853,78.910217 225.925247,79.327362 
	C222.214859,80.569977 218.150436,86.546516 219.824402,88.714561 
	C224.475555,94.738541 228.869003,101.140129 235.675873,105.026047 
	C241.408463,108.298660 247.989471,107.785164 250.644470,103.935776 
	C254.816010,97.887566 256.437317,91.018250 254.139801,84.046379 
	C252.207031,78.181320 249.008804,72.734894 240.885727,72.235703 
M274.472137,192.104355 
	C269.809845,187.672028 264.783447,183.528137 262.898193,176.912476 
	C259.860809,177.673965 257.172394,178.517075 254.419952,178.979095 
	C252.557388,179.291718 250.691833,178.731155 249.729050,176.860291 
	C248.673523,174.809189 249.901382,173.258865 251.358047,172.108978 
	C253.037354,170.783325 254.927017,169.710266 256.781555,168.623428 
	C260.435059,166.482300 265.289459,157.469925 264.079224,154.559036 
	C263.094269,152.189896 262.404144,149.927872 263.020935,147.327789 
	C263.650269,144.674881 261.977173,144.152222 259.831512,144.352692 
	C257.282532,144.590836 255.538788,145.791412 254.728699,148.372986 
	C252.837875,154.398544 250.606308,160.326248 248.942123,166.411026 
	C247.609253,171.284409 247.811783,176.253922 249.599686,181.119675 
	C254.428482,194.261459 265.242950,199.986633 277.652283,203.359558 
	C281.136017,204.306458 285.523956,204.857742 288.273193,200.052826 
	C283.452820,197.795654 279.108368,195.402191 274.472137,192.104355 
M224.440399,100.038132 
	C220.557022,95.737961 217.842102,88.933922 209.902863,93.324242 
	C209.427704,93.586998 208.601410,93.250954 207.946198,93.145714 
	C205.007523,92.673714 203.522507,93.405640 204.035202,96.864906 
	C204.513199,100.089920 202.510147,100.139221 200.324432,98.912560 
	C199.183762,98.272408 198.246689,97.261642 197.239304,96.393166 
	C191.418747,91.375175 188.005447,92.094513 183.995804,99.194168 
	C207.088745,116.161354 222.787354,120.557930 236.007584,109.768494 
	C234.092667,108.396263 232.136780,107.157936 230.374435,105.687622 
	C228.463089,104.093018 226.732010,102.282364 224.440399,100.038132 
M220.826965,71.460403 
	C225.001907,72.418564 235.441452,67.813789 236.883057,64.378242 
	C239.068527,59.169888 236.685104,47.243805 232.670120,43.339199 
	C231.472107,42.174122 230.175125,40.710861 228.377060,41.754116 
	C224.097321,44.237251 220.206024,43.017342 216.067978,41.254200 
	C211.893967,39.475739 207.890945,42.064899 208.233658,46.484039 
	C208.713318,52.669151 208.291122,59.236919 214.380783,63.705811 
	C216.831345,65.504143 218.396683,68.508736 220.826965,71.460403 
M223.339844,235.812683 
	C232.116913,220.203140 243.224747,207.055557 261.673004,201.542709 
	C255.719650,195.912994 249.683777,192.375458 247.221115,185.499954 
	C246.648773,183.902008 244.465454,182.988739 243.170547,184.877731 
	C238.457794,191.752548 231.783920,197.657410 231.906754,207.032837 
	C231.950745,210.390839 232.119125,214.006165 226.992905,213.813553 
	C226.482254,213.794373 225.655334,214.841461 225.436844,215.538422 
	C223.335861,222.239868 221.241150,228.961365 223.339844,235.812683 
M197.789856,56.588867 
	C195.131485,57.459518 192.532761,56.337700 189.898575,56.345531 
	C188.370605,56.350071 187.017868,56.303871 186.292114,58.163200 
	C181.514923,70.401787 184.015213,75.875748 196.486450,80.234848 
	C197.738693,80.672546 198.965408,81.195396 200.237717,81.561478 
	C205.518738,83.080971 210.937912,85.098167 214.038834,78.002792 
	C214.273758,77.465240 214.979538,77.070023 215.546890,76.752289 
	C217.883514,75.443657 217.800781,73.910797 216.347610,71.881241 
	C213.055328,67.283096 209.532806,62.900692 205.234253,59.203156 
	C203.340012,57.573772 201.351898,56.014503 197.789856,56.588867 
M309.238678,349.715546 
	C312.014496,347.878601 314.894562,346.179779 317.546814,344.179016 
	C325.774933,337.972076 334.855011,332.298065 339.569611,322.830261 
	C346.083588,309.748993 343.752533,300.016357 330.190704,296.704041 
	C319.075195,293.989136 311.311646,300.474701 312.807281,311.365662 
	C314.027618,309.870422 315.021332,308.328613 316.325256,307.122192 
	C319.101379,304.553680 321.784790,301.135437 326.117340,302.235077 
	C330.892822,303.447113 333.447845,307.204590 334.631622,311.836548 
	C336.603821,319.553375 333.091766,325.524170 328.003448,330.655884 
	C320.293732,338.431366 310.513947,343.370728 301.175354,348.733154 
	C295.722687,351.864166 292.201324,355.566132 291.067047,362.022339 
	C296.743530,357.396454 302.747101,353.839661 309.238678,349.715546 
M305.330017,326.868896 
	C302.004913,333.474976 297.711609,339.657684 295.553223,347.885284 
	C305.140381,342.657257 313.300842,337.272797 321.317719,331.709381 
	C325.843872,328.568420 329.560150,324.459412 331.243103,318.959503 
	C332.541992,314.714722 330.260925,308.134003 326.808136,306.724670 
	C322.228210,304.855225 320.026062,308.508820 317.983582,311.337189 
	C314.196503,316.581482 310.323212,321.713562 305.330017,326.868896 
M266.677185,54.908127 
	C264.840485,53.088398 263.983337,49.008026 260.322723,51.018734 
	C257.347443,52.652988 254.399490,54.932259 255.209351,59.289455 
	C255.869812,62.842834 254.722229,65.223351 250.986679,66.563133 
	C248.594086,67.421242 247.206589,69.359573 249.919785,71.862862 
	C257.321686,78.692154 260.177032,87.086006 258.014221,97.099861 
	C269.132416,94.053421 275.219574,66.641487 266.677185,54.908127 
M307.966064,154.263687 
	C305.878693,150.127060 304.202118,144.867493 298.469116,145.455139 
	C290.561676,146.265701 283.383698,149.428070 276.500488,155.444794 
	C279.072479,155.568985 280.521881,155.648666 281.972168,155.706390 
	C283.513641,155.767731 285.118042,155.931915 285.739410,157.566132 
	C286.486206,159.530319 285.043884,160.666748 283.655670,161.616287 
	C281.964172,162.773254 280.180847,163.795898 277.197906,165.644806 
	C283.454468,164.302124 285.039917,166.563858 283.977203,170.985321 
	C296.514252,173.988876 302.601654,171.081604 308.130463,159.957230 
	C309.043304,158.120499 309.385284,156.606949 307.966064,154.263687 
M272.578766,133.251556 
	C270.488556,134.352814 268.429352,135.172440 265.917572,134.496948 
	C260.002960,132.906342 258.753571,133.927414 258.229462,140.372910 
	C266.901093,141.087616 266.932648,141.131958 266.447937,149.606033 
	C266.349091,151.334793 266.721222,152.897400 268.632538,154.124725 
	C275.991486,148.218002 285.416412,146.270966 293.707367,142.115280 
	C289.742615,137.506195 283.299347,136.266815 280.741608,130.495392 
	C280.013458,128.852325 278.524689,129.286224 277.319946,130.032516 
	C275.908356,130.906937 274.591187,131.933792 272.578766,133.251556 
M241.168457,62.018265 
	C240.944656,63.325241 240.620438,64.624741 240.522339,65.941086 
	C240.397476,67.616364 241.389069,68.394394 242.984314,68.282921 
	C245.128326,68.133110 251.820740,60.717793 251.457382,58.655148 
	C250.782944,54.826851 252.612106,52.347157 255.326782,50.106934 
	C256.916779,48.794807 258.977417,47.929085 259.513550,46.891689 
	C257.322327,44.262981 255.670395,41.950089 253.686432,39.969852 
	C249.493668,35.784969 245.163040,39.120293 241.183090,40.390625 
	C237.804321,41.469078 239.137009,44.980419 239.647339,47.350990 
	C240.630951,51.919918 241.408325,56.461895 241.168457,62.018265 
M219.287216,208.236908 
	C213.909454,203.024887 210.626709,196.828735 210.640060,188.516846 
	C203.735092,205.444382 206.903198,224.948334 218.011261,234.560760 
	C219.082703,227.134018 219.603256,219.814590 222.353439,212.962738 
	C223.259201,210.706131 221.340347,209.723877 219.287216,208.236908 
M220.890594,171.580322 
	C219.452133,170.781952 219.147003,172.085205 218.794693,172.862579 
	C216.246292,178.485458 214.210571,184.263046 214.357864,190.554703 
	C214.535309,198.134003 221.192215,206.812424 227.945663,208.164001 
	C228.245804,195.618988 228.021820,183.241806 220.890594,171.580322 
M242.883286,227.453552 
	C257.022644,220.856842 263.811401,213.062561 261.784058,205.753296 
	C248.917007,208.374634 232.223526,223.673843 227.739258,237.782181 
	C231.542694,231.664230 236.781815,229.569443 242.883286,227.453552 
M233.360672,259.158508 
	C231.319565,257.131897 229.278473,255.105331 226.921280,252.764877 
	C225.258133,258.148956 227.266907,263.069183 225.567612,267.377380 
	C223.167984,268.245941 222.359909,265.778931 220.384552,265.407684 
	C221.081543,268.397095 221.745850,270.938721 222.249802,273.511749 
	C222.609131,275.346436 223.381516,276.585388 225.416245,276.684448 
	C231.355194,276.973541 237.228165,276.576385 243.680344,275.189117 
	C241.821152,268.803040 237.685501,264.321960 233.360672,259.158508 
M217.122726,266.202881 
	C216.573639,262.837555 216.956665,258.931549 213.022888,257.246490 
	C204.759781,253.706909 196.518890,254.167175 188.227661,257.710724 
	C199.122986,262.443848 208.644318,269.080383 218.635025,276.897186 
	C218.104416,272.816803 217.727356,269.917297 217.122726,266.202881 
M295.378510,197.739487 
	C301.088074,192.149200 303.921295,184.752853 307.063507,177.740189 
	C308.416687,174.720230 304.477081,173.800781 302.022705,174.477905 
	C298.005066,175.586258 293.970520,176.058563 289.469910,175.877121 
	C290.232391,178.904755 289.228607,181.478271 289.238281,184.087158 
	C289.257568,189.288223 288.281769,195.013672 295.378510,197.739487 
M179.248901,91.607170 
	C181.413498,92.496475 183.578674,93.541473 185.759018,91.648056 
	C190.195404,87.795494 194.440186,88.220818 198.488358,92.536339 
	C202.328415,89.752243 206.683365,89.150421 211.274979,88.682083 
	C201.173141,85.430702 190.955780,83.256981 182.464615,76.160484 
	C178.009323,80.690521 178.633377,86.071869 179.248901,91.607170 
M284.584229,193.968979 
	C287.096954,194.054352 285.868500,192.242065 285.862946,191.232605 
	C285.845703,188.115555 284.631622,185.074554 285.562714,181.871689 
	C286.725494,177.871857 284.549927,175.871429 280.905548,175.280792 
	C276.512482,174.568848 272.081818,174.385925 267.693665,175.284149 
	C267.630432,181.340469 273.480835,187.898682 284.584229,193.968979 
M179.856064,286.687683 
	C192.953003,285.926758 206.049957,285.165802 219.926697,284.359558 
	C215.365723,279.709747 181.627975,280.498108 171.818878,284.647095 
	C174.072739,286.072968 176.696014,285.798035 179.856064,286.687683 
M233.601547,392.907196 
	C253.066177,392.909546 261.197388,391.126404 266.698853,385.303558 
	C249.402359,390.726746 232.319992,390.008453 215.101669,387.527008 
	C220.436020,391.134430 226.174545,393.210846 233.601547,392.907196 
M238.815155,285.521515 
	C241.242676,285.564911 243.727707,286.257202 246.122681,284.945984 
	C246.576614,282.699951 246.199768,280.408447 243.736557,280.421143 
	C237.263535,280.454437 230.793320,281.033813 224.157013,281.404846 
	C225.031235,284.483185 226.990555,284.628113 229.028839,284.741516 
	C231.999619,284.906799 234.965775,285.154907 238.815155,285.521515 
M294.767212,284.619080 
	C297.258301,284.619080 299.749390,284.619080 302.240479,284.619080 
	C289.377930,281.085571 285.333679,281.064819 282.875336,284.058594 
	C286.719299,283.792145 290.338226,283.687378 294.767212,284.619080 
M268.512177,170.978500 
	C269.046448,167.307495 265.024872,164.025879 267.855194,160.158615 
	C262.957123,165.805252 263.049927,168.422256 268.512177,170.978500 
M277.494263,158.482819 
	C274.918915,159.537888 271.031433,159.209824 271.580383,164.136459 
	C275.232086,163.088654 278.120087,161.485199 281.249878,158.609009 
	C279.679077,158.501465 278.909637,158.448776 277.494263,158.482819 
M253.824692,281.301849 
	C251.724716,280.936096 249.817871,281.425415 250.554260,283.913177 
	C251.421265,286.842163 253.781723,285.595551 255.669464,285.174072 
	C256.228699,283.455963 255.526474,282.444733 253.824692,281.301849 
M259.508301,174.338226 
	C260.401489,173.688919 261.715546,173.257935 260.789246,171.496140 
	C257.871490,170.866486 256.146576,172.983185 253.741104,174.455261 
	C255.764893,175.539444 257.323547,174.756210 259.508301,174.338226 
z"/>
</svg>